<svg width="19" height="18" viewBox="0 0 19 18" fill="none" xmlns="http://www.w3.org/2000/svg">
<path d="M11 13.875H14.375M14.375 13.875H17.75M14.375 13.875V10.5M14.375 13.875V17.25M3.5 7.5H5.75C6.99264 7.5 8 6.49264 8 5.25V3C8 1.75736 6.99264 0.75 5.75 0.75H3.5C2.25736 0.75 1.25 1.75736 1.25 3V5.25C1.25 6.49264 2.25736 7.5 3.5 7.5ZM3.5 17.25H5.75C6.99264 17.25 8 16.2426 8 15V12.75C8 11.5074 6.99264 10.5 5.75 10.5H3.5C2.25736 10.5 1.25 11.5074 1.25 12.75V15C1.25 16.2426 2.25736 17.25 3.5 17.25ZM13.25 7.5H15.5C16.7426 7.5 17.75 6.49264 17.75 5.25V3C17.75 1.75736 16.7426 0.75 15.5 0.75H13.25C12.0074 0.75 11 1.75736 11 3V5.25C11 6.49264 12.0074 7.5 13.25 7.5Z" stroke="#494B4A" stroke-width="1.5" stroke-linecap="round" stroke-linejoin="round"/>
</svg>
