<svg width="22" height="18" viewBox="0 0 22 18" fill="none" xmlns="http://www.w3.org/2000/svg">
<path d="M1.25 10.5H5.10942C5.96166 10.5 6.74075 10.9815 7.12188 11.7438L7.37812 12.2562C7.75925 13.0185 8.53834 13.5 9.39058 13.5H12.6094C13.4617 13.5 14.2408 13.0185 14.6219 12.2562L14.8781 11.7438C15.2592 10.9815 16.0383 10.5 16.8906 10.5H20.75M1.25 10.8383V15C1.25 16.2426 2.25736 17.25 3.5 17.25H18.5C19.7426 17.25 20.75 16.2426 20.75 15V10.8383C20.75 10.614 20.7165 10.391 20.6505 10.1766L18.2387 2.33831C17.9482 1.39423 17.076 0.75 16.0882 0.75H5.91179C4.92403 0.75 4.05178 1.39423 3.76129 2.33831L1.3495 10.1766C1.28354 10.391 1.25 10.614 1.25 10.8383Z" stroke="#494B4A" stroke-width="1.5" stroke-linecap="round" stroke-linejoin="round"/>
</svg>
