<svg width="16" height="12" viewBox="0 0 16 12" fill="none" xmlns="http://www.w3.org/2000/svg">
<path fill-rule="evenodd" clip-rule="evenodd" d="M0.6875 1.625C0.6875 1.10723 1.10723 0.6875 1.625 0.6875C2.14277 0.6875 2.5625 1.10723 2.5625 1.625C2.5625 2.14277 2.14277 2.5625 1.625 2.5625C1.10723 2.5625 0.6875 2.14277 0.6875 1.625ZM4.75 1.625C4.75 1.27982 5.02982 1 5.375 1H15.375C15.7202 1 16 1.27982 16 1.625C16 1.97018 15.7202 2.25 15.375 2.25H5.375C5.02982 2.25 4.75 1.97018 4.75 1.625ZM0.6875 6C0.6875 5.48223 1.10723 5.0625 1.625 5.0625C2.14277 5.0625 2.5625 5.48223 2.5625 6C2.5625 6.51777 2.14277 6.9375 1.625 6.9375C1.10723 6.9375 0.6875 6.51777 0.6875 6ZM4.75 6C4.75 5.65482 5.02982 5.375 5.375 5.375H15.375C15.7202 5.375 16 5.65482 16 6C16 6.34518 15.7202 6.625 15.375 6.625H5.375C5.02982 6.625 4.75 6.34518 4.75 6ZM0.6875 10.375C0.6875 9.85723 1.10723 9.4375 1.625 9.4375C2.14277 9.4375 2.5625 9.85723 2.5625 10.375C2.5625 10.8928 2.14277 11.3125 1.625 11.3125C1.10723 11.3125 0.6875 10.8928 0.6875 10.375ZM4.75 10.375C4.75 10.0298 5.02982 9.75 5.375 9.75H15.375C15.7202 9.75 16 10.0298 16 10.375C16 10.7202 15.7202 11 15.375 11H5.375C5.02982 11 4.75 10.7202 4.75 10.375Z" fill="white"/>
</svg>
